<?xml version="1.0" encoding="UTF-8" standalone="no"?>
<!-- Created with Inkscape (http://www.inkscape.org/) -->
<svg
   xmlns:dc="http://purl.org/dc/elements/1.1/"
   xmlns:cc="http://web.resource.org/cc/"
   xmlns:rdf="http://www.w3.org/1999/02/22-rdf-syntax-ns#"
   xmlns:svg="http://www.w3.org/2000/svg"
   xmlns="http://www.w3.org/2000/svg"
   xmlns:sodipodi="http://sodipodi.sourceforge.net/DTD/sodipodi-0.dtd"
   xmlns:inkscape="http://www.inkscape.org/namespaces/inkscape"
   width="500"
   height="500"
   id="svg2"
   sodipodi:version="0.32"
   inkscape:version="0.45.1"
   version="1.0"
   sodipodi:docbase="C:\Users\Mo\Desktop\evade\evade\library"
   sodipodi:docname="title.svg"
   inkscape:output_extension="org.inkscape.output.svg.inkscape">
  <defs
     id="defs4" />
  <sodipodi:namedview
     id="base"
     pagecolor="#ffffff"
     bordercolor="#666666"
     borderopacity="1.0"
     gridtolerance="10000"
     guidetolerance="10"
     objecttolerance="10"
     inkscape:pageopacity="0.0"
     inkscape:pageshadow="2"
     inkscape:zoom="1.104"
     inkscape:cx="250"
     inkscape:cy="250"
     inkscape:document-units="px"
     inkscape:current-layer="layer1"
     width="500px"
     height="500px"
     inkscape:window-width="1264"
     inkscape:window-height="750"
     inkscape:window-x="0"
     inkscape:window-y="14" />
  <metadata
     id="metadata7">
    <rdf:RDF>
      <cc:Work
         rdf:about="">
        <dc:format>image/svg+xml</dc:format>
        <dc:type
           rdf:resource="http://purl.org/dc/dcmitype/StillImage" />
      </cc:Work>
    </rdf:RDF>
  </metadata>
  <g
     inkscape:label="Layer 1"
     inkscape:groupmode="layer"
     id="layer1">
    <rect
       style="fill:#2b0000;fill-opacity:1;stroke:#000000;stroke-width:3.75;stroke-linejoin:round;stroke-miterlimit:4;stroke-dasharray:none;stroke-opacity:1"
       id="rect2168"
       width="480.97827"
       height="125.9058"
       x="9.246376"
       y="83.92028" />
    <path
       transform="translate(-1.7086768,73.26449)"
       style="fill:#800000"
       d="M 18.40625,121.26008 L 18.40625,18.181956 L 92.9375,18.181956 L 92.9375,30.346018 L 32.046875,30.346018 L 32.046875,61.916331 L 89.070313,61.916331 L 89.070313,74.010081 L 32.046875,74.010081 L 32.046875,109.09602 L 95.328125,109.09602 L 95.328125,121.26008 L 18.40625,121.26008 z M 143.77344,121.26008 L 103.83594,18.181956 L 118.60156,18.181956 L 145.39063,93.064768 C 147.54683,99.06479 149.35152,104.68978 150.80469,109.93977 C 152.39839,104.31479 154.24995,98.689791 156.35938,93.064768 L 184.20313,18.181956 L 198.125,18.181956 L 157.76563,121.26008 L 143.77344,121.26008 z M 199.17969,121.26008 L 238.76563,18.181956 L 253.46094,18.181956 L 295.64844,121.26008 L 280.10938,121.26008 L 268.08594,90.041331 L 224.98438,90.041331 L 213.66406,121.26008 L 199.17969,121.26008 z M 228.92188,78.931956 L 263.86719,78.931956 L 253.10938,50.385081 C 249.82807,41.713285 247.39058,34.588292 245.79688,29.010081 C 244.48433,35.619541 242.63277,42.182035 240.24219,48.697581 L 228.92188,78.931956 z M 306.6875,121.26008 L 306.6875,18.181956 L 342.19531,18.181956 C 350.21088,18.182059 356.32806,18.674246 360.54688,19.658518 C 366.45305,21.017993 371.49211,23.478928 375.66406,27.041331 C 381.10148,31.63517 385.16788,37.506258 387.86328,44.654612 C 390.5585,51.803119 391.90615,59.971079 391.90625,69.158518 C 391.90615,76.986687 390.99209,83.92418 389.16406,89.971018 C 387.33585,96.017918 384.9921,101.02182 382.13281,104.98274 C 379.27335,108.94369 376.14445,112.06087 372.74609,114.3343 C 369.34758,116.60774 365.24602,118.3304 360.44141,119.50227 C 355.63666,120.67414 350.11713,121.26008 343.88281,121.26008 L 306.6875,121.26008 z M 320.32813,109.09602 L 342.33594,109.09602 C 349.13276,109.09603 354.46478,108.46322 358.33203,107.19758 C 362.19915,105.93197 365.28118,104.15072 367.57813,101.85383 C 370.81242,98.619478 373.33195,94.271826 375.13672,88.810862 C 376.94132,83.349962 377.84367,76.728875 377.84375,68.947581 C 377.84367,58.166394 376.07414,49.881246 372.53516,44.092112 C 368.99602,38.303132 364.69524,34.42423 359.63281,32.455393 C 355.9765,31.049233 350.0937,30.346109 341.98438,30.346018 L 320.32813,30.346018 L 320.32813,109.09602 z M 411.03125,121.26008 L 411.03125,18.181956 L 485.5625,18.181956 L 485.5625,30.346018 L 424.67188,30.346018 L 424.67188,61.916331 L 481.69531,61.916331 L 481.69531,74.010081 L 424.67188,74.010081 L 424.67188,109.09602 L 487.95313,109.09602 L 487.95313,121.26008 L 411.03125,121.26008 z "
       id="flowRoot2160" />
  </g>
</svg>
